<svg xmlns="http://www.w3.org/2000/svg" xmlns:xlink="http://www.w3.org/1999/xlink" viewBox="0 0 793.41 644.91"><defs><style>.cls-1,.cls-16,.cls-2{fill:none;}.cls-2,.cls-6{clip-path:url(#clip-path);}.cls-3{fill:#f2f2f2;}.cls-4{fill:#344b5e;}.cls-5{fill:#15212d;}.cls-7{opacity:0.15;}.cls-8{fill:#ffd93b;}.cls-14,.cls-9{fill:#fff;}.cls-10,.cls-9{opacity:0.2;}.cls-11{opacity:0.1;}.cls-12{fill:#ffa727;}.cls-13{fill:#333;}.cls-15{fill:#7c5221;}.cls-16{stroke:#c48633;stroke-linecap:round;stroke-linejoin:round;stroke-width:2.34px;}.cls-17{fill:#c48633;}.cls-18{fill:#ffae4d;}.cls-19{opacity:0.05;}</style><clipPath id="clip-path"><circle class="cls-1" cx="418.23" cy="254.83" r="244.39" transform="translate(-57.69 370.37) rotate(-45)"/></clipPath></defs><title>duck</title><g id="Layer_2" data-name="Layer 2"><g id="Objects"><ellipse class="cls-3" cx="423.23" cy="248.27" rx="255.27" ry="247.25"/><circle class="cls-4" cx="418.23" cy="254.83" r="244.38"/><path class="cls-5" d="M335.24,17.25a259.63,259.63,0,0,1,26.4-8.71,255.36,255.36,0,0,1,27.25-5.67A252.53,252.53,0,0,1,416.63.21C421.27,0,425.92,0,430.57.06l7,.12c2.32.09,4.64.29,7,.43a255.32,255.32,0,0,1,54.87,9.89A250,250,0,0,1,550.8,32.26l6.08,3.45c2,1.18,4,2.48,5.94,3.71s4,2.47,5.89,3.78l5.73,4a260.32,260.32,0,0,1,21.85,17.5,255.89,255.89,0,0,1,37.26,41.7A251.68,251.68,0,0,1,677,208.79a259.27,259.27,0,0,1,3.86,55.83A253,253,0,0,1,672.64,320a257.23,257.23,0,0,1-20.2,52.15,246.43,246.43,0,0,1-31.07,46.45A260.61,260.61,0,0,1,580.91,457l-2.76,2.15c-.93.7-1.9,1.35-2.85,2l-5.72,4c-1.87,1.38-3.88,2.57-5.84,3.83l-5.9,3.73c-2,1.2-4,2.32-6.06,3.47s-4,2.35-6.1,3.41l-6.23,3.14c-2.08,1-4.14,2.13-6.29,3A253.24,253.24,0,0,1,425,508.73c4.63-.19,9.26-.31,13.88-.56l6.92-.62,3.45-.3,1.73-.16,1.72-.24,6.88-.94,3.43-.47c1.15-.16,2.28-.41,3.41-.61l6.82-1.29c1.13-.22,2.28-.4,3.4-.67l3.37-.81a253.59,253.59,0,0,0,52.17-18.3c2.11-.93,4.14-2,6.19-3.08l6.14-3.18c2-1.07,4-2.3,6-3.44s4-2.3,6-3.5l5.8-3.77c1.93-1.27,3.9-2.46,5.74-3.85l5.61-4c.93-.68,1.88-1.33,2.79-2l2.7-2.15a254.36,254.36,0,0,0,89.46-135.83,249,249,0,0,0,7.9-54.43,255.79,255.79,0,0,0-4-54.84A252.2,252.2,0,0,0,593.62,67.68a263.24,263.24,0,0,0-44.57-32.34,246.36,246.36,0,0,0-50.51-22.06,254.81,254.81,0,0,0-54.2-10.42c-2.3-.19-4.59-.43-6.89-.56l-6.92-.24q-6.91-.31-13.85-.12a250.4,250.4,0,0,0-27.62,2.13A259.13,259.13,0,0,0,335.24,17.25Z"/><g class="cls-6"><circle class="cls-7" cx="244.38" cy="400.53" r="244.38" transform="translate(-211.64 290.12) rotate(-45)"/><circle class="cls-7" cx="549.03" cy="258.14" r="244.38" transform="translate(-21.73 463.83) rotate(-45)"/><circle class="cls-7" cx="439.44" cy="306.15" r="237.58" transform="translate(-87.77 400.4) rotate(-45)"/><path class="cls-8" d="M597.16,250c35.34,87,268.22,291-47.78,365.16C232.55,689.49,317.37,465,282,378A170.06,170.06,0,1,1,597.16,250Z"/><path class="cls-8" d="M589.7,231.61c25.36,62.43-83.09,68.29-145.52,93.65S302.07,425.31,276.71,362.88,244.18,143.14,352.37,99.2C466.86,52.69,564.35,169.18,589.7,231.61Z"/><path class="cls-9" d="M299.06,384.16q-3-7.5-5.31-15.09c-25.36-62.43-32.53-219.74,75.65-263.68,33.37-13.55,65.3-13.24,94.42-4.48-33.51-14.29-71.44-18-111.45-1.71-108.18,43.93-101,201.24-75.66,263.67C278.24,367.93,280,373,282,378c26.81,66-15.54,211.2,100.84,244.93C287.77,580.35,324.47,446.72,299.06,384.16Z"/><path class="cls-10" d="M376.32,91.74c93.33-4.23,168.37,89.33,190.16,143a57.28,57.28,0,0,1,2.31,6.92q2.76,5.58,5.15,11.44c35.34,87,268.22,291-47.79,365.16-17.19,4-33.19,7.19-48.1,9.53a592.47,592.47,0,0,0,71.33-12.63C865.38,541,632.5,337,597.16,250q-2.38-5.86-5.14-11.44a55.69,55.69,0,0,0-2.32-6.92C566.14,173.59,480.25,68.88,376.32,91.74Z"/><path class="cls-11" d="M379.59,253.69l-.32-.68c-.32-.7-.66-1.38-1-2.06l-.24-.46c-.42-.8-.86-1.59-1.31-2.36l-.31-.51c-.38-.64-.77-1.26-1.17-1.87l-.33-.51c-.49-.75-1-1.47-1.52-2.18a1,1,0,0,0-.12-.16c-.48-.66-1-1.3-1.48-1.92l-.36-.43q-1.67-2-3.45-3.81l-.27-.26c-.56-.55-1.13-1.08-1.7-1.59l-.15-.13c-.64-.57-1.3-1.11-2-1.64l0,0c-.64-.5-1.29-1-1.94-1.43l-.17-.12a37.6,37.6,0,0,0-4.11-2.47l-.12-.06c-6.81-3.48-13.95-4.32-20.31-1.74-15,6.11-20,29-11,51.12,5.82,14.34,16.06,24.83,26.63,28.78l.2.08,1.06.35.43.14c.31.1.63.19.94.27l.54.14.88.2.61.12.84.14c.21,0,.43.07.65.09s.53.06.79.09l.69.05.76,0h1.45l.74,0c.23,0,.46,0,.69-.06l.78-.1.65-.1c.27,0,.55-.1.82-.16l.59-.13.92-.26.47-.14c.46-.15.92-.31,1.38-.5,15-6.11,19.95-29,11-51.12C380.36,255.4,380,254.54,379.59,253.69Z"/><path class="cls-11" d="M383.49,257.05l-.29-.62c-.3-.62-.6-1.24-.92-1.85l-.21-.41c-.38-.73-.78-1.44-1.18-2.13l-.28-.46c-.35-.58-.69-1.14-1.05-1.68l-.3-.47c-.45-.67-.9-1.32-1.37-2l-.1-.14c-.44-.59-.89-1.17-1.34-1.73l-.32-.39c-1-1.21-2-2.36-3.11-3.43l-.25-.23c-.5-.5-1-1-1.53-1.43l-.13-.12c-.58-.52-1.17-1-1.77-1.48l0,0c-.57-.45-1.16-.88-1.75-1.29l-.15-.11a33.85,33.85,0,0,0-3.7-2.22l-.1,0c-6.14-3.14-12.57-3.9-18.3-1.57-13.55,5.5-18,26.12-9.88,46,5.25,12.92,14.46,22.37,24,25.92l.18.07c.32.12.63.22.95.32l.39.13c.28.09.56.16.85.24l.48.13.8.17.54.12.76.12.58.09.72.07.62.05.69,0h.64l.66,0,.67,0,.62-.06c.23,0,.47-.05.7-.09l.58-.08.74-.15c.18,0,.36-.07.53-.12L373,306l.43-.13c.42-.13.83-.28,1.24-.45,13.55-5.5,18-26.11,9.88-46C384.18,258.58,383.84,257.81,383.49,257.05Z"/><path class="cls-11" d="M584.75,268.45c-16.42-15.48-48.24-8.89-73.91,14.24a61.4,61.4,0,0,1-23,11.08c-12.37,3.19-24.32,2.68-33.18-.7-8.24-5-17-6.56-24.59-3.47S417.24,300,414.86,309.39c-4,8.55-12.31,17-23.33,23.27-8.69,5-17.46,8.37-25.88,8h0c-34,1.87-60.51,19.21-61.47,41.48-.81,18.73,16.91,35.64,42.57,43.26a85.67,85.67,0,0,0,4.33,17.64l.18.44a29.59,29.59,0,0,0,38.53,16.28l93.94-38.15L576.37,384a29.57,29.57,0,0,0,16.27-38.52l-.17-.41a82.81,82.81,0,0,0-8.71-15C597.43,306.45,598.61,281.52,584.75,268.45Z"/><path class="cls-11" d="M579.92,256.55c-16.43-15.49-48.25-8.9-73.92,14.24a61.47,61.47,0,0,1-23,11.08c-12.37,3.19-24.32,2.68-33.18-.7-8.23-5-17-6.57-24.59-3.47S412.4,288.07,410,297.49c-4,8.54-12.46,16.73-23.48,23-8.69,5-17.62,8.13-26,7.79h0c-32.7,3.49-60.35,19.45-61.31,41.71-.81,18.74,17,35.76,42.64,43.38a85.91,85.91,0,0,0,4.38,17.71l.2.46A29.61,29.61,0,0,0,385,447.87l93.94-38.14,92.64-37.62a29.56,29.56,0,0,0,16.27-38.52l-.16-.4a82.88,82.88,0,0,0-8.72-15C592.59,294.55,593.78,269.62,579.92,256.55Z"/><path class="cls-12" d="M475.69,315.22c10.44,25.71,5.38,52-11.3,58.81s-38.66-8.58-49.1-34.28-5.38-52,11.3-58.8S465.25,289.52,475.69,315.22Z"/><path class="cls-12" d="M440.83,379.76c-1.06,24.5-33.27,43-71.95,41.32s-69.16-22.88-68.11-47.38,33.28-43,72-41.31S441.89,355.27,440.83,379.76Z"/><path class="cls-12" d="M485.07,361.79c17.84,16.82,53.83,7.62,80.38-20.54s33.62-64.64,15.79-81.45-53.83-7.62-80.39,20.54S467.23,345,485.07,361.79Z"/><path class="cls-12" d="M412.27,298.6c-3.6,9.23-12.21,18.78-24.14,25.6a60.6,60.6,0,0,1-25.77,8.22L328,359.29l54.72,6.87s26.56,2.56,30.5,1.54,36.49-23,36.49-23l1.69-25.86Z"/><path class="cls-12" d="M449.21,283.6c9,4.1,21.84,4.94,35.15,1.51A60.58,60.58,0,0,0,508.56,273l43.37-4.7L517.5,311.42s-17.26,20.36-20.79,22.37-42.2,8.95-42.2,8.95l-19.24-17.36Z"/><path class="cls-12" d="M589.12,336.85a29.55,29.55,0,0,1-16.26,38.51L480.22,413l-93.94,38.15a29.56,29.56,0,0,1-38.52-16.27l-.16-.41c-6.15-15.13-11.17-62.68,4-68.82l186.57-75.78c15.13-6.14,44.68,31.45,50.83,46.58Z"/><path class="cls-13" d="M379.49,256.36c8.09,19.93,3.67,40.54-9.88,46s-31.09-6.18-39.18-26.11-3.67-40.54,9.88-46S371.4,236.44,379.49,256.36Z"/><path class="cls-14" d="M351.51,251.91c2.85,7,1.29,14.28-3.48,16.23s-11-2.19-13.82-9.21-1.29-14.29,3.49-16.23S348.66,244.88,351.51,251.91Z"/><path d="M352.81,229.6c7.69,4.57,14.74,12.88,19.07,23.55,8.1,19.92,3.67,40.54-9.88,46a19.81,19.81,0,0,1-12.5.65c6.67,4,13.82,5.12,20.11,2.56,13.55-5.5,18-26.11,9.88-46C373.75,242.23,363.26,232.25,352.81,229.6Z"/><path class="cls-8" d="M400.11,292.53c3.57,8.79-4.86,20.52-18.83,26.19s-28.18,3.15-31.76-5.65,4.86-20.53,18.83-26.2S396.53,283.73,400.11,292.53Z"/><path class="cls-11" d="M492.16,208l-.32-.69c-.33-.69-.67-1.38-1-2l-.23-.46q-.64-1.22-1.32-2.37l-.31-.51c-.38-.63-.77-1.25-1.16-1.86-.12-.18-.22-.35-.34-.52-.49-.74-1-1.47-1.51-2.18l-.12-.15c-.49-.66-1-1.3-1.49-1.93l-.35-.43a50.74,50.74,0,0,0-3.46-3.8l-.27-.26c-.56-.55-1.12-1.08-1.7-1.59l-.14-.14c-.65-.57-1.3-1.11-2-1.63l0,0c-.64-.5-1.29-1-1.94-1.43l-.17-.12a36.67,36.67,0,0,0-4.11-2.47l-.11-.06c-6.82-3.48-14-4.32-20.32-1.74-15,6.11-19.95,29-11,51.12,5.82,14.34,16.06,24.83,26.64,28.78l.19.08,1.06.35.43.15.95.26.54.14c.29.08.58.14.88.2l.6.13.84.13c.22,0,.43.07.65.09s.53.07.8.09l.68.05.77,0h1.44l.74,0c.23,0,.47,0,.7-.06s.51-.06.77-.1l.65-.09.82-.17.59-.13c.31-.07.61-.17.92-.26a4.34,4.34,0,0,0,.48-.14c.46-.15.92-.31,1.37-.49,15-6.11,19.95-29,11-51.12C492.92,209.68,492.54,208.82,492.16,208Z"/><path class="cls-11" d="M496.05,211.33c-.1-.21-.19-.41-.29-.61-.29-.63-.6-1.25-.91-1.86l-.21-.41c-.39-.72-.78-1.43-1.19-2.13l-.28-.46q-.51-.86-1.05-1.68l-.3-.46c-.44-.67-.9-1.33-1.37-2l-.1-.14c-.44-.59-.89-1.17-1.34-1.73l-.32-.39c-1-1.21-2-2.36-3.11-3.42l-.24-.24c-.51-.49-1-1-1.53-1.43l-.14-.12c-.58-.51-1.17-1-1.76-1.47l0,0c-.58-.45-1.16-.88-1.75-1.29l-.16-.11a36.45,36.45,0,0,0-3.69-2.22l-.11,0c-6.13-3.14-12.57-3.89-18.29-1.57-13.55,5.51-18,26.12-9.89,46,5.25,12.92,14.47,22.37,24,25.92l.18.07.95.33.39.12c.28.09.57.16.85.24l.49.13c.26.07.53.12.79.18l.55.11.75.12.58.09.73.07.61.05.69,0h1.3l.67,0,.62-.05.7-.09.59-.09c.25,0,.49-.1.74-.15l.53-.12c.28-.06.55-.15.82-.23l.43-.12c.42-.14.83-.29,1.24-.45,13.55-5.5,18-26.12,9.88-46C496.74,212.87,496.4,212.09,496.05,211.33Z"/><path class="cls-13" d="M492.05,210.65c8.1,19.92,3.67,40.53-9.87,46s-31.1-6.19-39.19-26.12-3.67-40.53,9.88-46S484,190.72,492.05,210.65Z"/><path d="M465.37,183.88c7.69,4.57,14.74,12.88,19.08,23.55,8.09,19.93,3.67,40.54-9.89,46a19.88,19.88,0,0,1-12.5.66c6.67,4,13.83,5.11,20.12,2.56,13.54-5.51,18-26.12,9.87-46C486.31,196.51,475.82,186.53,465.37,183.88Z"/><path class="cls-14" d="M464.51,205.91c2.86,7,1.29,14.28-3.48,16.23s-11-2.19-13.82-9.21-1.29-14.29,3.49-16.23S461.66,198.88,464.51,205.91Z"/><path class="cls-8" d="M512.67,246.81c3.57,8.8-4.85,20.52-18.82,26.2s-28.19,3.14-31.76-5.66,4.85-20.52,18.82-26.2S509.1,238,512.67,246.81Z"/><path class="cls-15" d="M417.4,319.46a19.61,19.61,0,0,0,8.43-19.95,19.66,19.66,0,0,0-8.43,19.95Z"/><path class="cls-15" d="M461.31,303.25a23.83,23.83,0,0,1-21.43-9.05,23.8,23.8,0,0,1,21.43,9.05Z"/><path class="cls-16" d="M343.29,416.87s-1.46-28.37-23.66-38.27"/><path class="cls-17" d="M317.09,387.43a9,9,0,0,1-.2-6.51,12.45,12.45,0,0,1,3.81-5.51,16.92,16.92,0,0,1,2.71-1.93c.47-.28,1-.48,1.47-.72a15.1,15.1,0,0,1,1.5-.65c1-.33,2.06-.66,3.11-.89s2.12-.34,3.19-.41c-.93.57-1.88,1-2.81,1.49s-1.81,1-2.72,1.46-1.75,1-2.57,1.6a26.44,26.44,0,0,0-2.34,1.81,15,15,0,0,0-3.67,4.45A13.09,13.09,0,0,0,317.09,387.43Z"/><path class="cls-16" d="M579.37,321s-18.73-21.35-9.72-43.92"/><path class="cls-17" d="M577.63,281.61a13.16,13.16,0,0,0-5.11-3.13,15,15,0,0,0-5.73-.63,24.52,24.52,0,0,0-2.94.34c-1,.16-2,.44-3,.64s-2,.54-3,.85-2,.65-3,.89c.81-.7,1.69-1.31,2.57-1.93s1.88-1.05,2.85-1.53c.49-.23,1-.4,1.52-.58s1-.39,1.56-.51a18,18,0,0,1,3.29-.51,12.41,12.41,0,0,1,6.57,1.3A8.92,8.92,0,0,1,577.63,281.61Z"/><path class="cls-17" d="M409.41,315.45a39.13,39.13,0,0,0,2.23,6c.9,1.83,2.17,3.4,3.77,3.93s3.58.12,5.47-.66,3.76-1.91,5.72-3a17.82,17.82,0,0,1-4.88,4.59,11.46,11.46,0,0,1-3.26,1.39,7,7,0,0,1-3.81-.14,6.75,6.75,0,0,1-3.09-2.28,10.49,10.49,0,0,1-1.61-3.18A15.25,15.25,0,0,1,409.41,315.45Z"/><path class="cls-17" d="M464.23,293.18a15.22,15.22,0,0,1,4.28,5.18,10.26,10.26,0,0,1,1.07,3.4,6.61,6.61,0,0,1-.63,3.78,6.93,6.93,0,0,1-2.63,2.76,11.46,11.46,0,0,1-3.3,1.28,18,18,0,0,1-6.7.12c2.14-.61,4.24-1.12,6.16-1.87s3.64-1.83,4.39-3.34.59-3.5,0-5.45A39.37,39.37,0,0,0,464.23,293.18Z"/><path class="cls-17" d="M392.44,448.64l7-3.14,7.06-3.09,14.12-6.16q14.16-6.08,28.36-12.07c9.45-4,19-7.9,28.43-11.86L506,400.64c19.05-7.69,38.11-15.35,57.25-22.81l7.17-2.8,1.8-.7L573,374l.83-.38a35.8,35.8,0,0,0,3.26-1.8,31,31,0,0,0,10.43-10.48,25.35,25.35,0,0,0,3.35-14.43,42.36,42.36,0,0,0-3.9-14.71,40,40,0,0,1,4.8,14.64,26.62,26.62,0,0,1-2.79,15.3,32.51,32.51,0,0,1-10.67,11.56,35.47,35.47,0,0,1-3.42,2q-.43.24-.9.45l-.93.4-1.77.75-7.1,3c-18.92,8-37.92,15.8-56.94,23.57L478.7,415.4c-9.55,3.77-19.08,7.61-28.65,11.32s-19.15,7.45-28.74,11.12l-14.42,5.44L399.68,446Z"/><path class="cls-18" d="M375.7,441.57l193.74-78.69s21.1-13.67,6.71-34.91C577.28,354.85,375.7,441.57,375.7,441.57Z"/><path class="cls-8" d="M349.25,73.15c11.26,21.72-14.31,34.74-14.31,34.74a59.15,59.15,0,0,0,16,8.17,295.21,295.21,0,0,1,27.44-12.29,47.65,47.65,0,0,0,2.53-9c8.22-44.37-32.65-50.7-51.11-38-12.1,8.31-13.25,23.63-13.25,23.63C326.46,64.36,344.32,63.64,349.25,73.15Z"/><path class="cls-9" d="M349.25,73.15c11.26,21.72-14.31,34.74-14.31,34.74a59.15,59.15,0,0,0,16,8.17,296.94,296.94,0,0,1,27.45-12.3,48.32,48.32,0,0,0,2.52-9c8.22-44.37-32.65-50.7-51.11-38-12.1,8.31-13.25,23.63-13.25,23.63C326.46,64.36,344.32,63.64,349.25,73.15Z"/><path class="cls-19" d="M585.58,416.94c-95.43,95.43-250.17,95.44-345.61,0a243.49,243.49,0,0,1-53.12-79.52,243.18,243.18,0,0,0,60.57,100.21c95.44,95.44,250.18,95.44,345.61,0,71.92-71.91,89.63-177.48,53.17-266A244.33,244.33,0,0,1,585.58,416.94Z"/></g></g></g></svg>